# xmcd CD database file
#
# Track frame offsets:
#	150
#	19061
#	34819
#	42549
#	56903
#	75099
#	87297
#	116723
#	130350
#	141831
#	161221
#	179755
#	200291
#	219146
#	240476
#	256343
#	271186
#	290408
#
# Disc length: 3999 seconds
#
# Revision: 1
# Processed by: cddbd v1.5.2PL0 Copyright (c) Steve Scherf et al.
# Submitted via: CDex 1.51
#
DISCID=040f9d12
DTITLE=Blur - Blur - Disc 2
DYEAR=1997
DGENRE=Britpop
TTITLE0=All Your Life
TTITLE1=A Spell (For Money)
TTITLE2=Woodpigeon Song
TTITLE3=Dancehall
TTITLE4=Get Out Of Cities
TTITLE5=Polished Stone
TTITLE6=Bustin' and Dronin'
TTITLE7=M.O.R. (Road Version)
TTITLE8=Swallows In The Heatwave
TTITLE9=Death Of A Party (7'' Remix)
TTITLE10=Cowboy Song
TTITLE11=Beetlebum
TTITLE12=On Your Own
TTITLE13=Country Sad Ballad Man
TTITLE14=This Is A Low
TTITLE15=M.O.R. [Live]
TTITLE16=Death of a party [Live]
TTITLE17=Song 2 [Live]
EXTD=YEAR: 1997
EXTT0=
EXTT1=
EXTT2=
EXTT3=
EXTT4=
EXTT5=
EXTT6=
EXTT7=
EXTT8=
EXTT9=
EXTT10=
EXTT11=
EXTT12=
EXTT13=
EXTT14=
EXTT15=
EXTT16=
EXTT17=
PLAYORDER=
